<svg width="61" height="60" viewBox="0 0 61 60" fill="none" xmlns="http://www.w3.org/2000/svg">
<path d="M25.616 35C21.8511 31.2205 22.1902 24.7522 26.3735 20.5527L38.4925 8.38655C42.6757 4.18708 49.119 3.84663 52.884 7.62615C56.649 11.4057 56.3097 17.8739 52.1265 22.0734L46.067 28.1565" stroke="#7CA3EA" stroke-width="3.75" stroke-linecap="round"/>
<path d="M35.384 25C39.149 28.7795 38.8098 35.2478 34.6265 39.4473L28.567 45.5302L22.5075 51.6135C18.3242 55.813 11.8809 56.1532 8.116 52.3737C4.35108 48.5942 4.69023 42.126 8.87348 37.9265L14.9331 31.8432" stroke="#7CA3EA" stroke-width="3.75" stroke-linecap="round"/>
<path d="M35.5 34.884C31.7205 38.6489 25.2522 38.3098 21.0527 34.1265L8.88655 22.0075C4.68708 17.8243 4.34663 11.381 8.12615 7.61601C11.9057 3.85101 18.3739 4.19026 22.5734 8.37351L28.6565 14.433" stroke="#3B6FB9" stroke-width="3.75" stroke-linecap="round"/>
<path d="M25.5 25.116C29.2795 21.351 35.7478 21.6902 39.9473 25.8735L46.0302 31.933L52.1135 37.9925C56.313 42.1758 56.6532 48.6191 52.8737 52.384C49.0942 56.1489 42.626 55.8098 38.4265 51.6265L32.3432 45.5669" stroke="#3B6FB9" stroke-width="3.75" stroke-linecap="round"/>
</svg>
