<svg width="226" height="60" viewBox="0 0 226 60" fill="none" xmlns="http://www.w3.org/2000/svg">
<path d="M34.616 35C30.8511 31.2205 31.1902 24.7522 35.3735 20.5527L47.4925 8.38655C51.6757 4.18708 58.119 3.84663 61.884 7.62615C65.649 11.4057 65.3097 17.8739 61.1265 22.0734L55.067 28.1565" stroke="#7CA3EA" stroke-width="3.75" stroke-linecap="round"/>
<path d="M44.384 25C48.149 28.7795 47.8098 35.2478 43.6265 39.4473L37.567 45.5302L31.5075 51.6135C27.3242 55.813 20.8809 56.1532 17.116 52.3737C13.3511 48.5942 13.6902 42.126 17.8735 37.9265L23.9331 31.8432" stroke="#7CA3EA" stroke-width="3.75" stroke-linecap="round"/>
<path d="M44.5 34.884C40.7205 38.6489 34.2522 38.3098 30.0527 34.1265L17.8866 22.0075C13.6871 17.8243 13.3466 11.381 17.1262 7.61601C20.9057 3.85101 27.3739 4.19026 31.5734 8.37351L37.6565 14.433" stroke="#3B6FB9" stroke-width="3.75" stroke-linecap="round"/>
<path d="M34.5 25.116C38.2795 21.351 44.7478 21.6902 48.9473 25.8735L55.0302 31.933L61.1135 37.9925C65.313 42.1758 65.6532 48.6191 61.8737 52.384C58.0942 56.1489 51.626 55.8098 47.4265 51.6265L41.3432 45.5669" stroke="#3B6FB9" stroke-width="3.75" stroke-linecap="round"/>
<path d="M88.9699 39.24C87.7539 39.24 86.6419 39.032 85.6339 38.616C84.6259 38.2 83.7539 37.608 83.0179 36.84C82.2819 36.056 81.7059 35.136 81.2899 34.08C80.8899 33.008 80.6899 31.84 80.6899 30.576C80.6899 29.36 80.9059 28.232 81.3379 27.192C81.7699 26.152 82.3699 25.24 83.1379 24.456C83.9059 23.672 84.8019 23.064 85.8259 22.632C86.8499 22.2 87.9619 21.984 89.1619 21.984C89.9779 21.984 90.7699 22.104 91.5379 22.344C92.3059 22.584 93.0099 22.92 93.6499 23.352C94.2899 23.768 94.8259 24.256 95.2579 24.816L93.2659 27C92.8499 26.568 92.4179 26.208 91.9699 25.92C91.5379 25.616 91.0819 25.392 90.6019 25.248C90.1379 25.088 89.6579 25.008 89.1619 25.008C88.4259 25.008 87.7299 25.144 87.0739 25.416C86.4339 25.688 85.8739 26.072 85.3939 26.568C84.9299 27.064 84.5619 27.656 84.2899 28.344C84.0179 29.016 83.8819 29.768 83.8819 30.6C83.8819 31.448 84.0099 32.216 84.2659 32.904C84.5379 33.592 84.9139 34.184 85.3939 34.68C85.8899 35.176 86.4739 35.56 87.1459 35.832C87.8339 36.088 88.5859 36.216 89.4019 36.216C89.9299 36.216 90.4419 36.144 90.9379 36C91.4339 35.856 91.8899 35.656 92.3059 35.4C92.7379 35.128 93.1299 34.816 93.4819 34.464L95.0179 36.936C94.6339 37.368 94.1219 37.76 93.4819 38.112C92.8419 38.464 92.1219 38.744 91.3219 38.952C90.5379 39.144 89.7539 39.24 88.9699 39.24ZM102.112 39.24C101.2 39.24 100.408 39.04 99.7362 38.64C99.0642 38.224 98.5522 37.64 98.2002 36.888C97.8482 36.12 97.6722 35.208 97.6722 34.152V26.352H100.624V33.528C100.624 34.2 100.728 34.776 100.936 35.256C101.144 35.72 101.448 36.08 101.848 36.336C102.248 36.592 102.728 36.72 103.288 36.72C103.704 36.72 104.08 36.656 104.416 36.528C104.768 36.384 105.072 36.192 105.328 35.952C105.584 35.696 105.784 35.4 105.928 35.064C106.072 34.712 106.144 34.336 106.144 33.936V26.352H109.096V39H106.216L106.168 36.36L106.696 36.072C106.504 36.68 106.176 37.224 105.712 37.704C105.264 38.168 104.728 38.544 104.104 38.832C103.48 39.104 102.816 39.24 102.112 39.24ZM113.924 39V23.136H116.876V39H113.924ZM111.428 29.088V26.352H119.636V29.088H111.428ZM123.252 39V23.136H126.204V39H123.252ZM120.756 29.088V26.352H128.964V29.088H120.756ZM131.548 39V26.352H134.5V39H131.548ZM132.988 23.664C132.396 23.664 131.932 23.52 131.596 23.232C131.276 22.928 131.116 22.504 131.116 21.96C131.116 21.448 131.284 21.032 131.62 20.712C131.956 20.392 132.412 20.232 132.988 20.232C133.596 20.232 134.06 20.384 134.38 20.688C134.716 20.976 134.884 21.4 134.884 21.96C134.884 22.456 134.716 22.864 134.38 23.184C134.044 23.504 133.58 23.664 132.988 23.664ZM139.396 39V25.224C139.396 24.456 139.564 23.776 139.9 23.184C140.236 22.576 140.7 22.104 141.292 21.768C141.884 21.416 142.572 21.24 143.356 21.24C143.9 21.24 144.404 21.336 144.868 21.528C145.332 21.704 145.724 21.952 146.044 22.272L145.132 24.504C144.924 24.328 144.7 24.192 144.46 24.096C144.236 24 144.02 23.952 143.812 23.952C143.492 23.952 143.22 24.008 142.996 24.12C142.788 24.216 142.628 24.368 142.516 24.576C142.42 24.784 142.372 25.032 142.372 25.32V39H140.884C140.596 39 140.324 39 140.068 39C139.828 39 139.604 39 139.396 39ZM137.428 29.208V26.616H145.228V29.208H137.428ZM149.586 44.52L152.273 38.304L152.298 40.272L146.058 26.352H149.465L152.946 34.608C153.058 34.816 153.17 35.096 153.282 35.448C153.394 35.784 153.49 36.12 153.57 36.456L152.97 36.648C153.082 36.344 153.202 36.024 153.33 35.688C153.458 35.336 153.578 34.976 153.69 34.608L156.666 26.352H160.098L154.818 39L152.658 44.52H149.586ZM176.242 39.144C174.914 39.144 173.73 38.864 172.69 38.304C171.65 37.728 170.826 36.944 170.218 35.952C169.626 34.944 169.33 33.808 169.33 32.544V22.176H172.474V32.328C172.474 33.08 172.642 33.752 172.978 34.344C173.33 34.92 173.794 35.384 174.37 35.736C174.946 36.088 175.57 36.264 176.242 36.264C176.978 36.264 177.642 36.088 178.234 35.736C178.826 35.384 179.29 34.92 179.626 34.344C179.978 33.752 180.154 33.08 180.154 32.328V22.176H183.178V32.544C183.178 33.808 182.874 34.944 182.266 35.952C181.674 36.944 180.858 37.728 179.818 38.304C178.778 38.864 177.586 39.144 176.242 39.144ZM187.498 39V22.2H194.794C195.802 22.2 196.722 22.44 197.554 22.92C198.386 23.384 199.042 24.024 199.522 24.84C200.018 25.64 200.266 26.544 200.266 27.552C200.266 28.512 200.018 29.4 199.522 30.216C199.042 31.016 198.386 31.656 197.554 32.136C196.738 32.6 195.818 32.832 194.794 32.832H190.546V39H187.498ZM197.242 39L192.97 31.416L196.186 30.816L200.938 39.024L197.242 39ZM190.546 30.12H194.818C195.282 30.12 195.682 30.016 196.018 29.808C196.37 29.584 196.642 29.28 196.834 28.896C197.026 28.512 197.122 28.088 197.122 27.624C197.122 27.096 197.002 26.64 196.762 26.256C196.522 25.872 196.186 25.568 195.754 25.344C195.322 25.12 194.826 25.008 194.266 25.008H190.546V30.12ZM204.233 39V22.2H207.353V36.12H215.105V39H204.233Z" fill="white"/>
</svg>
